# xmcd
#
# Track frame offsets:
#	182
#	9967
#	27980
#	41945
#	51590
#	63122
#	78612
#	91790
#	109932
#	114420
#	126250
#	147287
#	156992
#	175035
#	185085
#
# Disc length: 2658 seconds
#
# Revision: 1
# Processed by: cddbd v1.5.2PL0 Copyright (c) Steve Scherf et al.
# Submitted via: audiograbber 1.83.01
#
DISCID=cd0a600f
DTITLE=AA.VV. - 033 - Canti del lavoro
DYEAR=1994
DGENRE=Folklore
TTITLE0=L.Tajoli  - Arrotino
TTITLE1=N.Pizzi - Campanaro
TTITLE2=A.Amici - Barcarolo romano
TTITLE3=R.Murolo - lo zoccolaro
TTITLE4=L.Tajoli - Spazzacamino
TTITLE5=C.Villa - Mondina
TTITLE6=C.Buti - la canzone dell'operaio
TTITLE7=Maurizio - Pisciaturella
TTITLE8=Gruppo Padano di Piàdena - Gli scariolanti
TTITLE9=Gabrè - Miniera
TTITLE10=O.Vanoni - La zolfatara
TTITLE11=Mina - Serafino campanaro
TTITLE12=Margot - Polesine
TTITLE13=D.Modugno - Salinaru
TTITLE14=B.Gigli - Carrettieri
EXTD=
EXTT0=
EXTT1=
EXTT2=
EXTT3=
EXTT4=
EXTT5=
EXTT6=
EXTT7=
EXTT8=
EXTT9=
EXTT10=
EXTT11=
EXTT12=
EXTT13=
EXTT14=
PLAYORDER=
